<?xml version="1.0" encoding="UTF-8"?>
<svg id="Layer_1" xmlns="http://www.w3.org/2000/svg" version="1.1" viewBox="0 0 706.67 194.38">
  <!-- Generator: Adobe Illustrator 29.3.0, SVG Export Plug-In . SVG Version: 2.1.0 Build 146)  -->
  <g>
    <path d="M477.99,127.94c-.33-9.89-.5-25.59-.5-34.58v11.35c0-9,.17-24.69.5-34.57.31-9.2.97-15.72,1.96-23.8h-31.08c.99,8.08,1.65,14.6,1.95,23.8.34,9.88.51,25.58.51,34.57v-11.35c0,8.99-.17,24.68-.51,34.58-.31,9.18-.96,17.5-1.94,25.03h31.07c-1-7.54-1.64-15.85-1.95-25.03Z"/>
    <path d="M237.44,127.94c-.33-9.89-.5-25.59-.5-34.58v11.35c0-9,.17-24.69.5-34.57.31-9.2.97-15.72,1.96-23.8h-31.09c.99,8.08,1.64,14.6,1.95,23.8.33,9.88.51,25.58.51,34.57v-11.35c0,8.99-.17,24.68-.51,34.58-.31,9.18-.97,17.5-1.94,25.03h31.07c-1-7.54-1.64-15.85-1.95-25.03Z"/>
    <path d="M409.19,97.76c0-10.4-1.72-18.93-5.13-25.63-3.42-6.69-7.84-11.99-13.26-15.9-5.42-3.89-11.48-6.64-18.18-8.23-6.71-1.6-13.37-2.4-19.97-2.4h-24.13c-6.58,0-13.25.8-19.94,2.4-6.71,1.59-12.79,4.34-18.19,8.23-5.42,3.91-9.83,9.21-13.26,15.9-3.41,6.7-5.13,15.23-5.13,25.63,0,8.59,1.3,52.95,1.19,55.21h27.21c-.49-9.84-.63-16.42-.63-28.02v-18.32c0-15.01,3.42-29.99,10.22-37.7,2.89-3.25,6.26-5.78,10.06-7.67,5.76-2.31,12.61-3.58,20.54-3.8,7.93.22,14.77,1.48,20.53,3.8,3.81,1.89,7.19,4.42,10.06,7.67,6.81,7.71,10.22,22.7,10.22,37.7v18.32c0,11.61-.45,18.18-.93,28.02h27.53c-.12-2.26,1.17-46.62,1.17-55.21Z"/>
    <path d="M174.18,45.9c-1.53-.19-3.35-.29-5.47-.29-17.19,0-32.74,10.79-46.64,32.37l-.89-.3c0-3.79.06-7.79.22-11.99.12-3.72.65-8.68,1.58-14.74h-28.89c.71,12.21,1.13,23.16,1.26,32.72.15,10.2.2,19.19.2,26.98v9.58c0,17-.05-4.88-.2,6.8-.12,10.71-.52,19.34-1.21,25.94h28.91c-.62-4.14-1-9.26-1.12-15.48-.14-7.09-.2-17.35-.2-30.76v3.22c0-5.79.82-11.24,2.47-16.35,1.66-5.1,4-9.51,7.07-13.21,3.05-3.7,6.83-6.65,11.31-8.85,4.47-2.2,9.52-3.31,15.19-3.31,3.53,0,7.01.5,10.42,1.51,1.59.46,2.9.95,4.02,1.46l6.7-24.13c-1.83-.58-3.45-1.01-4.72-1.18Z"/>
    <path d="M643.89,155.74c5.18-10.49,10.83-21.58,16.96-33.24,6.12-11.68,12.31-23.46,18.56-35.35,6.23-11.87,12.36-23.46,18.36-34.74,1.33-2.49,2.62-4.9,3.9-7.3h-15.21c-8.64,18.83-17.64,36.62-27.02,53.28-9.06-18.28-17.68-36-25.95-53.28h-33.19c.63,1.25,1.22,2.43,1.86,3.7,4.94,9.89,9.78,19.58,14.5,29.06,4.69,9.48,9.13,18.52,13.24,27.11,4.13,8.59,7.48,15.58,10.08,20.97-5.4,10.91-9.79,18.82-15.82,32.72h18.3c.48-.98.94-1.92,1.43-2.92Z"/>
    <g>
      <path d="M540.02,99.12c0,.09,0,.17,0,.25,0-1.36,0-1.78,0-.25Z"/>
      <path d="M552.36,135.47c-3.68-2.71-6.58-6.06-8.46-10.35-1.89-4.3-3.02-9.14-3.37-14.54-.16-2.51-.16-5.12-.25-7.67-.03,1.65-.07,3.26-.09,4.95-.11,6.45-.16-3.95-.17-8.49,0-.08,0-.17,0-.25,0-1.53,0-1.11,0,.25,0,2.91.17.7.26,3.54.13-6.6.28-8.02.49-14.17.24-7.7.57-16.44.95-22.03.38-5.59.69-8.79.95-9.59h17.31c3.78,0,7.3.05,10.6.12,3.31.07,6.47.18,9.56.34-.26-.57-.37-1.56-.37-2.91v-6.12c0-1.55.11-2.63.37-3.21-8.25.41-15.91.67-22.99.76-7.05.09-11.88.14-14.48.14.46-7.47.89-12.81,1.24-20.17.35-7.39.88-14.91,1.58-22.58l-28.85,9.74-.17,54.68c-.05,7.79-.17,15.03-.35,21.69-.27,9.09-.58,17.38-.96,24.87-.39,7.49,2.19,23.03,9.26,29.21,7.07,6.18,18.03,9.28,32.87,9.28.75,0,1.54-.09,2.31-.11v-13.9c-2.68-.85-5.18-1.98-7.26-3.49Z"/>
      <path d="M540.19,107.86c.03-1.69.06-3.29.09-4.95-.09-2.85-.26-.64-.26-3.54,0,4.54.06,14.94.17,8.49Z"/>
    </g>
    <g>
      <path d="M29.88,99.12c0,.09.01.17.01.25-.01-1.36-.01-1.78-.01-.25Z"/>
      <path d="M42.23,135.47c-3.68-2.71-6.59-6.06-8.47-10.35-1.89-4.3-3.02-9.14-3.37-14.54-.16-2.51-.16-5.12-.25-7.67-.03,1.65-.07,3.26-.1,4.95-.11,6.45-.16-3.95-.17-8.49,0-.08-.01-.17-.01-.25,0-1.53,0-1.11.01.25,0,2.91.17.7.26,3.54.13-6.6.28-8.02.49-14.17.24-7.7.57-16.44.95-22.03.38-5.59.69-8.79.95-9.59h17.31c3.78,0,7.3.05,10.6.12,3.31.07,6.47.18,9.56.34-.26-.57-.36-1.56-.36-2.91v-6.12c0-1.55.11-2.63.36-3.21-8.25.41-15.91.67-22.99.76-7.05.09-11.88.14-14.48.14.46-7.47.89-12.81,1.24-20.17.35-7.39.88-14.91,1.58-22.58L6.51,13.24l-.17,54.68c-.05,7.79-.17,15.03-.35,21.69-.26,9.09-.58,17.38-.96,24.87-.39,7.49,2.19,23.03,9.26,29.21,7.08,6.18,18.03,9.28,32.88,9.28.76,0,1.54-.09,2.31-.11v-13.9c-2.68-.85-5.19-1.98-7.26-3.49Z"/>
      <path d="M30.05,107.86c.03-1.69.06-3.29.1-4.95-.09-2.85-.26-.64-.26-3.54,0,4.54.06,14.94.17,8.49Z"/>
    </g>
  </g>
  <g>
    <path d="M61.34,174.95h-10.26v8.45h11.24l-.23,1.44h-12.57v-20.13h12.34v1.43h-10.79v7.36h10.26v1.44Z"/>
    <path d="M68.47,174.09c0-1.27,0-2.47-.03-3.63h1.41c.06.46.09,2.33.06,2.73.63-1.46,1.81-3.07,4.77-3.07,2.56,0,4.83,1.44,4.83,5.4v9.32h-1.44v-9.09c0-2.56-1.06-4.23-3.56-4.23-3.42,0-4.6,2.85-4.6,5.98v7.33h-1.44v-10.75Z"/>
    <path d="M84.88,170.46h2.67v-4.49h1.44v4.49h3.42v1.35h-3.42v9.35c0,1.61.34,2.53,1.72,2.53.43,0,1.03-.03,1.5-.17v1.27c-.49.2-1.18.26-1.78.26-1.84,0-2.87-.92-2.87-3.22v-10.01h-2.67v-1.35Z"/>
    <path d="M98.38,177.83c.03,3.71,1.9,6.01,4.66,6.01s3.62-1.52,4.14-2.7h1.46c-.6,1.9-2.12,4.05-5.67,4.05-4.37,0-6.07-3.76-6.07-7.42,0-4.11,2.04-7.65,6.24-7.65,4.43,0,5.83,3.83,5.83,6.53,0,.4,0,.81-.03,1.18h-10.58ZM107.49,176.56c-.03-2.85-1.58-5.09-4.4-5.09-2.96,0-4.31,2.07-4.63,5.09h9.02Z"/>
    <path d="M115.39,174.37c0-2.41-.03-3.45-.03-3.91h1.41c.03.46.06,1.38.06,3.22.83-2.16,2.67-3.45,5-3.56v1.55c-2.99.2-5,2.27-5,5.69v7.48h-1.44v-10.47Z"/>
    <path d="M126.33,170.46h2.67v-4.49h1.44v4.49h3.42v1.35h-3.42v9.35c0,1.61.34,2.53,1.72,2.53.43,0,1.03-.03,1.5-.17v1.27c-.49.2-1.18.26-1.78.26-1.84,0-2.87-.92-2.87-3.22v-10.01h-2.67v-1.35Z"/>
    <path d="M149.55,182.11c0,1.26.12,2.27.2,2.73h-1.38c-.12-.34-.2-.98-.26-2.21-.48,1.06-1.75,2.56-4.71,2.56-3.34,0-4.77-2.16-4.77-4.31,0-3.16,2.44-4.6,6.76-4.6h2.73v-1.47c0-1.44-.43-3.36-3.71-3.36-2.9,0-3.34,1.52-3.65,2.7h-1.43c.17-1.58,1.15-4.03,5.12-4.03,3.28,0,5.12,1.38,5.12,4.54v7.45ZM148.14,177.51h-2.82c-3.19,0-5.18.83-5.18,3.31,0,1.81,1.3,3.05,3.31,3.05,4.11,0,4.69-2.73,4.69-5.84v-.52Z"/>
    <path d="M157.18,163.65h1.44v2.79h-1.44v-2.79ZM157.18,170.46h1.44v14.38h-1.44v-14.38Z"/>
    <path d="M166.22,174.09c0-1.27,0-2.47-.03-3.63h1.41c.06.46.09,2.33.06,2.73.63-1.46,1.81-3.07,4.77-3.07,2.56,0,4.83,1.44,4.83,5.4v9.32h-1.44v-9.09c0-2.56-1.06-4.23-3.56-4.23-3.42,0-4.6,2.85-4.6,5.98v7.33h-1.44v-10.75Z"/>
    <path d="M184.88,174.17c0-1.23,0-2.59-.03-3.71h1.41c.03.49.09,1.72.06,2.56.6-1.43,1.92-2.9,4.31-2.9,2.01,0,3.6,1.01,4.17,2.85.72-1.5,2.16-2.85,4.69-2.85,2.22,0,4.51,1.27,4.51,5.26v9.46h-1.43v-9.29c0-1.92-.69-4.03-3.36-4.03s-4.06,2.25-4.06,5.03v8.28h-1.41v-9.26c0-2.1-.63-4.06-3.28-4.06-2.79,0-4.14,2.47-4.14,5.41v7.91h-1.44v-10.67Z"/>
    <path d="M211.94,177.83c.03,3.71,1.9,6.01,4.66,6.01s3.62-1.52,4.14-2.7h1.46c-.6,1.9-2.12,4.05-5.67,4.05-4.37,0-6.07-3.76-6.07-7.42,0-4.11,2.04-7.65,6.24-7.65,4.43,0,5.83,3.83,5.83,6.53,0,.4,0,.81-.03,1.18h-10.58ZM221.05,176.56c-.03-2.85-1.58-5.09-4.4-5.09-2.96,0-4.31,2.07-4.63,5.09h9.03Z"/>
    <path d="M228.95,174.09c0-1.27,0-2.47-.03-3.63h1.41c.06.46.09,2.33.06,2.73.63-1.46,1.81-3.07,4.77-3.07,2.56,0,4.83,1.44,4.83,5.4v9.32h-1.44v-9.09c0-2.56-1.06-4.23-3.56-4.23-3.42,0-4.6,2.85-4.6,5.98v7.33h-1.44v-10.75Z"/>
    <path d="M245.36,170.46h2.67v-4.49h1.44v4.49h3.42v1.35h-3.42v9.35c0,1.61.34,2.53,1.72,2.53.43,0,1.03-.03,1.5-.17v1.27c-.49.2-1.18.26-1.78.26-1.84,0-2.87-.92-2.87-3.22v-10.01h-2.67v-1.35Z"/>
    <path d="M285.91,171.9l-5,7.76c-2.45,3.77-4.2,5.47-7.42,5.47s-5.2-2.62-5.2-5.12,1.12-4.31,5.38-6.61c2.94-1.9,4.03-2.71,4.03-4.55,0-1.58-1.01-3.1-2.93-3.1-1.81,0-3.07,1.12-3.07,3.22,0,1.3.89,2.5,2.61,4.14l11.9,11.73h-2.16l-10.87-10.73c-1.87-1.78-2.96-3.11-2.96-5.15,0-2.27,1.52-4.54,4.6-4.54,2.59,0,4.37,1.96,4.37,4.43,0,1.96-1.06,3.22-4.6,5.41-4.05,2.3-4.74,3.71-4.74,5.63,0,2.07,1.78,3.83,3.65,3.83,2.33,0,3.89-.81,6.47-4.94l4.29-6.87h1.67Z"/>
    <path d="M303.63,179.44c.6,2.67,2.39,4.25,5.69,4.25,3.68,0,5.09-1.84,5.09-4.03s-1.01-3.68-5.43-4.77c-4.26-1.07-6.1-2.45-6.1-5.35,0-2.65,1.93-5.12,6.24-5.12s6.29,2.7,6.56,5.15h-1.61c-.46-2.16-1.87-3.71-5.03-3.71-2.9,0-4.49,1.35-4.49,3.59s1.32,3.07,5.03,4c5.67,1.41,6.5,3.68,6.5,6.09,0,2.96-2.16,5.52-6.82,5.52-5.03,0-6.87-2.93-7.24-5.63h1.61Z"/>
    <path d="M320.72,170.46h2.67v-4.49h1.44v4.49h3.42v1.35h-3.42v9.35c0,1.61.34,2.53,1.72,2.53.43,0,1.03-.03,1.5-.17v1.27c-.49.2-1.18.26-1.78.26-1.84,0-2.87-.92-2.87-3.22v-10.01h-2.67v-1.35Z"/>
    <path d="M333.82,174.37c0-2.41-.03-3.45-.03-3.91h1.41c.03.46.06,1.38.06,3.22.83-2.16,2.67-3.45,5-3.56v1.55c-2.99.2-5,2.27-5,5.69v7.48h-1.44v-10.47Z"/>
    <path d="M355.41,182.11c0,1.26.12,2.27.2,2.73h-1.38c-.12-.34-.2-.98-.26-2.21-.48,1.06-1.75,2.56-4.71,2.56-3.34,0-4.77-2.16-4.77-4.31,0-3.16,2.44-4.6,6.76-4.6h2.73v-1.47c0-1.44-.43-3.36-3.71-3.36-2.9,0-3.34,1.52-3.65,2.7h-1.43c.17-1.58,1.15-4.03,5.12-4.03,3.28,0,5.12,1.38,5.12,4.54v7.45ZM354,177.51h-2.82c-3.19,0-5.18.83-5.18,3.31,0,1.81,1.3,3.05,3.31,3.05,4.11,0,4.69-2.73,4.69-5.84v-.52Z"/>
    <path d="M360.74,170.46h2.67v-4.49h1.44v4.49h3.42v1.35h-3.42v9.35c0,1.61.34,2.53,1.72,2.53.43,0,1.03-.03,1.5-.17v1.27c-.49.2-1.18.26-1.78.26-1.84,0-2.87-.92-2.87-3.22v-10.01h-2.67v-1.35Z"/>
    <path d="M374.24,177.83c.03,3.71,1.9,6.01,4.66,6.01s3.62-1.52,4.14-2.7h1.46c-.6,1.9-2.12,4.05-5.67,4.05-4.37,0-6.07-3.76-6.07-7.42,0-4.11,2.04-7.65,6.24-7.65,4.43,0,5.83,3.83,5.83,6.53,0,.4,0,.81-.03,1.18h-10.58ZM383.35,176.56c-.03-2.85-1.58-5.09-4.4-5.09-2.96,0-4.31,2.07-4.63,5.09h9.03Z"/>
    <path d="M402.56,183.86c0,4.6-2.04,7.02-6.21,7.02-3.74,0-5.29-2.1-5.64-4.29h1.47c.52,1.98,2.16,2.94,4.23,2.94,3.74,0,4.78-2.41,4.78-6.07v-1.5c-.78,1.87-2.19,2.87-4.8,2.87-3.36,0-5.95-2.73-5.95-7.19,0-4.83,2.76-7.53,6.15-7.53,2.94,0,4.2,1.38,4.6,2.53.03-.83.06-1.84.08-2.19h1.35c0,.52-.06,2.79-.06,4.17v9.23ZM391.94,177.6c0,3.42,1.81,5.89,4.58,5.89,3.59,0,4.69-2.39,4.69-6.13s-1.15-5.89-4.6-5.89-4.66,2.85-4.66,6.13Z"/>
    <path d="M410.17,163.65h1.44v2.79h-1.44v-2.79ZM410.17,170.46h1.44v14.38h-1.44v-14.38Z"/>
    <path d="M429.79,180.62c-.69,2.53-2.36,4.57-5.58,4.57-3.59,0-6.15-2.67-6.15-7.48,0-3.94,2.1-7.59,6.33-7.59,3.65,0,5.15,2.59,5.4,4.6h-1.46c-.43-1.67-1.53-3.25-3.97-3.25-3.05,0-4.78,2.59-4.78,6.18s1.61,6.18,4.63,6.18c2.1,0,3.36-1.06,4.11-3.22h1.46Z"/>
    <path d="M462.03,179.47c-.95,3.19-3.31,5.6-7.57,5.6-5.78,0-8.82-4.6-8.82-10.26s2.99-10.38,8.86-10.38c4.34,0,6.9,2.41,7.56,5.78h-1.56c-.92-2.62-2.61-4.34-6.09-4.34-5,0-7.1,4.57-7.1,8.91s2.07,8.86,7.22,8.86c3.27,0,4.94-1.7,5.95-4.17h1.56Z"/>
    <path d="M480.37,177.63c0,4-2.22,7.56-6.5,7.56-3.88,0-6.3-3.19-6.3-7.53,0-4.11,2.27-7.53,6.44-7.53,3.83,0,6.36,2.99,6.36,7.51ZM469.09,177.65c0,3.42,1.84,6.18,4.89,6.18s4.86-2.56,4.86-6.18c0-3.39-1.73-6.18-4.92-6.18s-4.83,2.73-4.83,6.18Z"/>
    <path d="M486.83,174.09c0-1.27,0-2.47-.03-3.63h1.41c.06.46.09,2.33.06,2.73.63-1.46,1.81-3.07,4.77-3.07,2.56,0,4.83,1.44,4.83,5.4v9.32h-1.44v-9.09c0-2.56-1.06-4.23-3.56-4.23-3.42,0-4.6,2.85-4.6,5.98v7.33h-1.44v-10.75Z"/>
    <path d="M505.39,180.87c.49,1.87,1.81,2.99,4.08,2.99,2.56,0,3.6-1.18,3.6-2.79s-.69-2.44-3.91-3.22c-3.71-.89-4.63-2.01-4.63-3.91s1.5-3.83,4.74-3.83,4.8,1.98,5.03,4.03h-1.43c-.26-1.21-1.21-2.7-3.65-2.7s-3.22,1.23-3.22,2.39c0,1.32.69,1.98,3.54,2.67,4.05.98,5.06,2.3,5.06,4.46,0,2.61-2.13,4.23-5.15,4.23-3.27,0-5.12-1.72-5.52-4.31h1.47Z"/>
    <path d="M531.46,180.65c0,1.41.03,3.65.03,4.2h-1.38c-.06-.37-.08-1.32-.08-2.5-.61,1.7-2.07,2.85-4.63,2.85-2.07,0-4.71-.81-4.71-5.2v-9.52h1.41v9.17c0,2.1.66,4.14,3.51,4.14,3.22,0,4.43-1.81,4.43-5.93v-7.39h1.43v10.18Z"/>
    <path d="M539.08,184.84v-21.19h1.44v21.19h-1.44Z"/>
    <path d="M546.17,170.46h2.67v-4.49h1.44v4.49h3.42v1.35h-3.42v9.35c0,1.61.34,2.53,1.72,2.53.43,0,1.03-.03,1.5-.17v1.27c-.49.2-1.18.26-1.78.26-1.84,0-2.87-.92-2.87-3.22v-10.01h-2.67v-1.35Z"/>
    <path d="M569.39,182.11c0,1.26.12,2.27.2,2.73h-1.38c-.12-.34-.2-.98-.26-2.21-.48,1.06-1.75,2.56-4.71,2.56-3.34,0-4.77-2.16-4.77-4.31,0-3.16,2.44-4.6,6.76-4.6h2.73v-1.47c0-1.44-.43-3.36-3.71-3.36-2.9,0-3.34,1.52-3.65,2.7h-1.43c.17-1.58,1.15-4.03,5.12-4.03,3.28,0,5.12,1.38,5.12,4.54v7.45ZM567.98,177.51h-2.82c-3.19,0-5.18.83-5.18,3.31,0,1.81,1.3,3.05,3.31,3.05,4.11,0,4.69-2.73,4.69-5.84v-.52Z"/>
    <path d="M577.02,174.09c0-1.27,0-2.47-.03-3.63h1.41c.06.46.09,2.33.06,2.73.63-1.46,1.81-3.07,4.77-3.07,2.56,0,4.83,1.44,4.83,5.4v9.32h-1.43v-9.09c0-2.56-1.07-4.23-3.57-4.23-3.42,0-4.6,2.85-4.6,5.98v7.33h-1.44v-10.75Z"/>
    <path d="M593.43,170.46h2.67v-4.49h1.44v4.49h3.42v1.35h-3.42v9.35c0,1.61.34,2.53,1.72,2.53.43,0,1.03-.03,1.5-.17v1.27c-.49.2-1.18.26-1.78.26-1.84,0-2.87-.92-2.87-3.22v-10.01h-2.67v-1.35Z"/>
    <path d="M607.27,180.87c.49,1.87,1.81,2.99,4.09,2.99,2.56,0,3.59-1.18,3.59-2.79s-.69-2.44-3.91-3.22c-3.71-.89-4.63-2.01-4.63-3.91s1.5-3.83,4.74-3.83,4.8,1.98,5.03,4.03h-1.43c-.26-1.21-1.21-2.7-3.65-2.7s-3.22,1.23-3.22,2.39c0,1.32.69,1.98,3.54,2.67,4.05.98,5.06,2.3,5.06,4.46,0,2.61-2.13,4.23-5.15,4.23-3.27,0-5.12-1.72-5.52-4.31h1.47Z"/>
  </g>
</svg>